<?xml version="1.0" encoding="utf-8"?>
<!-- Generator: Adobe Illustrator 23.0.5, SVG Export Plug-In . SVG Version: 6.00 Build 0)  -->
<svg version="1.1" id="Layer_1" xmlns="http://www.w3.org/2000/svg" xmlns:xlink="http://www.w3.org/1999/xlink" x="0px" y="0px"
	 viewBox="0 0 1366 768" style="enable-background:new 0 0 1366 768;" xml:space="preserve">
<style type="text/css">
	.st0{fill:#F9F9F9;stroke:#020202;stroke-width:8;stroke-miterlimit:10;}
	.st1{fill:#FFFDFD;}
	.st2{fill:#070707;}
</style>
<path class="st0" d="M944,404"/>
<g>
	<circle class="st1" cx="529" cy="380" r="354"/>
	<g>
		<path class="st2" d="M274,215c-19,0.4-33.15,40.22-43,68c-12.58,35.48-15.28,64.76-16,74c-4.81,62.07,10.81,110.69,17,128
			c5.92,16.55,28.87,76.21,88,129c19.62,17.51,87.05,75.94,191,82c13.68,0.8,84.4,3.97,162-36c69.63-35.87,106.43-86.71,115-99
			c53.66-76.98,54.94-155.37,55-180c0.14-58.45-15.67-101.26-19-110c-36.9-96.75-116.59-145.57-145-161
			c-141.15-76.65-285.22-17.85-306,0c-1.95,1.67-3.95,3.62-3.95,3.62c-10.64,10.1-35.28,36.54-28.05,62.38
			c6.8,24.26,35.78,40.4,58,37c15.2-2.33,25.22-12.36,30-17c38.32-37.17,102.01-55.44,141-55c64.63,0.73,130.6,53.62,129,93
			c-0.1,2.56-0.57,10.96-6,19c-15.45,22.88-56.23,1.21-92,26c-32.41,22.46-51.87,55.33-54,59c-14.61,25.19-16.4,42.36-26,43
			c-16,1.07-31.13-45.28-32-48c-7.53-23.59-3.78-32.31-12-66c-6.23-25.53-9.34-38.29-17-40c-15.31-3.42-23.33,40.86-61,55
			c-31.17,11.7-63.3-4.58-66-6C294.33,255.72,293.38,214.59,274,215z"/>
		<ellipse class="st0" cx="289.5" cy="365" rx="36.5" ry="52"/>
		<ellipse class="st0" cx="405.5" cy="364.5" rx="36.5" ry="51.5"/>
	</g>
</g>
</svg>
