<?xml version="1.0" encoding="utf-8"?>
<!-- Generator: Adobe Illustrator 23.0.5, SVG Export Plug-In . SVG Version: 6.00 Build 0)  -->
<svg version="1.1" id="Layer_1" xmlns="http://www.w3.org/2000/svg" xmlns:xlink="http://www.w3.org/1999/xlink" x="0px" y="0px"
	 viewBox="0 0 288 560" style="enable-background:new 0 0 288 560;" xml:space="preserve">
<style type="text/css">
	.st0{fill:#0C0C0B;stroke:#FFFFFF;stroke-miterlimit:10;}
	.st1{fill:#73E9FF;stroke:#FFFFFF;stroke-miterlimit:10;}
	.st2{fill:#73E9FF;}
	.st3{fill:#191916;}
	.st4{fill:#0C0C09;}
	.st5{fill:#C1A016;}
	.st6{fill:#EAC218;}
	.st7{fill:#FFFFFF;}
	.st8{fill:#E8A3C5;}
</style>
<path class="st0" d="M78,132.6"/>
<g>
	<path class="st1" d="M73.6,103.2"/>
	<g>
		<path class="st2" d="M126.9,186.1h-23c-14.5,0-26.2-10.9-26.2-24.4v-19.2c0-13.5,11.7-24.4,26.2-24.4h23
			c14.5,0,26.2,10.9,26.2,24.4v19.2C153.2,175.1,141.4,186.1,126.9,186.1z"/>
		<ellipse class="st2" cx="116.1" cy="139" rx="36.1" ry="22.3"/>
		<ellipse class="st2" cx="115.2" cy="130.4" rx="31.7" ry="14.6"/>
		<polygon class="st2" points="77.7,104.1 77.7,33.3 115.4,72.8 153.2,33.3 152.9,104.1 		"/>
		<ellipse class="st2" cx="115.4" cy="105.8" rx="37.7" ry="31"/>
		<path class="st2" d="M175.6,131.6"/>
		<path class="st2" d="M155.1,144c-7.7,13-26.1,30.5-42.2,29c-3-0.3-9.7-1.6-13.7,2.1c-1.7,1.6-3.4,4.7-2.6,7
			c2.5,7,29.8,9.3,48.8-3.2c8.2-5.4,12.2-11.7,18.6-22c10-15.9,20.7-41.2,13.6-46.9c-2.4-1.9-6-1-6.5-0.9
			C162,111.5,164.9,127.7,155.1,144z"/>
	</g>
</g>
<path class="st3" d="M125.5,185.4h-20.3c-12.8,0-23.2-10.4-23.2-23.2v-18.3c0-12.8,10.4-23.2,23.2-23.2h20.3
	c12.8,0,23.2,10.4,23.2,23.2v18.3C148.7,174.9,138.3,185.4,125.5,185.4z"/>
<ellipse class="st4" cx="116" cy="140.5" rx="32" ry="21.2"/>
<ellipse cx="115.1" cy="132.3" rx="28.1" ry="13.9"/>
<polygon class="st3" points="82,107.2 82,43.2 115.3,78.9 148.7,43.2 148.5,107.2 "/>
<ellipse class="st3" cx="115.3" cy="108.9" rx="33.4" ry="29.5"/>
<circle class="st5" cx="100.8" cy="97.3" r="9.5"/>
<circle class="st5" cx="128.8" cy="97.3" r="9.5"/>
<path class="st6" d="M128.8,97.3l-9.5,0.4c0-0.1,0-0.3,0-0.4c0-5.2,4.3-9.5,9.5-9.5c5.2,0,9.5,4.3,9.5,9.5H128.8z"/>
<circle cx="128.8" cy="97.3" r="5.9"/>
<path class="st6" d="M100.8,97.3l-9.4,0.5c0-0.2,0-0.3,0-0.5c0-5.2,4.3-9.5,9.5-9.5s9.5,4.3,9.5,9.5H100.8z"/>
<circle cx="100.8" cy="97.3" r="5.9"/>
<rect x="121.3" y="111.5" transform="matrix(0.9791 -0.2036 0.2036 0.9791 -20.0903 28.5608)" class="st7" width="14.9" height="0.9"/>
<rect x="100.4" y="104.5" transform="matrix(0.2036 -0.9791 0.9791 0.2036 -29.2267 187.8855)" class="st7" width="0.9" height="14.9"/>
<rect x="128.3" y="109.8" transform="matrix(0.2036 -0.9791 0.9791 0.2036 -12.233 219.4494)" class="st7" width="0.9" height="14.9"/>
<rect x="93.8" y="117.2" transform="matrix(0.9791 -0.2036 0.2036 0.9791 -21.8296 23.0733)" class="st7" width="14.9" height="0.9"/>
<ellipse transform="matrix(0.9791 -0.2036 0.2036 0.9791 -17.1383 22.9515)" class="st7" cx="103" cy="94.8" rx="2.7" ry="2.2"/>
<ellipse transform="matrix(0.9791 -0.2036 0.2036 0.9791 -16.5533 28.6422)" class="st7" cx="130.9" cy="94.8" rx="2.7" ry="2.2"/>
<ellipse class="st8" cx="115" cy="110.8" rx="3.8" ry="2.7"/>
<path class="st3" d="M168.6,133.4"/>
<path class="st3" d="M160.4,144.6c-7.4,13.6-25.9,27.8-39.2,26.6c-2.7-0.3-8.3-1.4-11.6,2c-1.6,1.7-2.9,4.7-2.2,6.6
	c1.9,5.2,18,3.5,30.5-2.4c16.4-7.8,25.3-22.5,29.1-28.7c7.1-11.9,14.9-31.9,9.3-36.9c-1.3-1.1-3.5-1.7-5.5-0.9
	C164,113.8,168.7,129.4,160.4,144.6z"/>
</svg>
