<?xml version="1.0" encoding="utf-8"?>
<!-- Generator: Adobe Illustrator 25.3.1, SVG Export Plug-In . SVG Version: 6.00 Build 0)  -->
<svg version="1.1" id="Layer_1" xmlns="http://www.w3.org/2000/svg" xmlns:xlink="http://www.w3.org/1999/xlink" x="0px" y="0px"
	 viewBox="0 0 288 560" style="enable-background:new 0 0 288 560;" xml:space="preserve">
<style type="text/css">
	.st0{fill:#0C0C0B;stroke:#FFFFFF;stroke-miterlimit:10;}
	.st1{fill:#191916;}
	.st2{fill:#0C0C09;}
	.st3{fill:#C1A016;}
	.st4{fill:#EAC218;}
	.st5{fill:#FFFFFF;}
	.st6{fill:#E8A3C5;}
</style>
<path class="st0" d="M78.04,132.65"/>
<path class="st1" d="M125.52,185.35h-20.35c-12.82,0-23.22-10.39-23.22-23.22v-18.26c0-12.82,10.39-23.22,23.22-23.22h20.35
	c12.82,0,23.22,10.39,23.22,23.22v18.26C148.74,174.95,138.34,185.35,125.52,185.35z"/>
<ellipse class="st2" cx="115.96" cy="140.5" rx="32" ry="21.24"/>
<ellipse cx="115.12" cy="132.28" rx="28.08" ry="13.87"/>
<polygon class="st1" points="81.96,107.22 81.96,43.24 115.35,78.95 148.74,43.24 148.49,107.22 "/>
<ellipse class="st1" cx="115.35" cy="108.92" rx="33.39" ry="29.51"/>
<circle class="st3" cx="100.75" cy="97.34" r="9.46"/>
<circle class="st3" cx="128.77" cy="97.34" r="9.46"/>
<path class="st4" d="M128.77,97.34l-9.46,0.39c-0.01-0.13-0.01-0.26-0.01-0.39c0-5.19,4.27-9.46,9.46-9.46s9.46,4.27,9.46,9.46
	H128.77z"/>
<circle cx="128.77" cy="97.34" r="5.93"/>
<path class="st4" d="M100.75,97.34l-9.45,0.48c-0.01-0.16-0.01-0.32-0.01-0.48c0-5.19,4.27-9.46,9.46-9.46
	c5.19,0,9.46,4.27,9.46,9.46H100.75z"/>
<circle cx="100.75" cy="97.34" r="5.93"/>
<rect x="121.33" y="111.46" transform="matrix(0.9791 -0.2036 0.2036 0.9791 -20.0897 28.5626)" class="st5" width="14.87" height="0.92"/>
<rect x="93.44" y="111.46" transform="matrix(-0.9791 -0.2036 0.2036 -0.9791 176.8538 242.0265)" class="st5" width="14.87" height="0.92"/>
<rect x="121.33" y="116.78" transform="matrix(0.9791 0.2036 -0.2036 0.9791 26.5685 -23.7623)" class="st5" width="14.87" height="0.92"/>
<rect x="93.8" y="117.18" transform="matrix(-0.9791 0.2036 -0.2036 -0.9791 224.301 212.2068)" class="st5" width="14.87" height="0.92"/>
<ellipse transform="matrix(0.9791 -0.2036 0.2036 0.9791 -17.1391 22.9519)" class="st5" cx="102.98" cy="94.77" rx="2.73" ry="2.15"/>
<ellipse transform="matrix(0.9791 -0.2036 0.2036 0.9791 -16.5535 28.6442)" class="st5" cx="130.93" cy="94.77" rx="2.73" ry="2.15"/>
<ellipse class="st6" cx="115" cy="110.78" rx="3.8" ry="2.7"/>
<path class="st1" d="M168.57,133.43"/>
<path class="st1" d="M160.39,144.58c-7.43,13.55-25.92,27.81-39.19,26.59c-2.74-0.25-8.3-1.44-11.63,2.01
	c-1.62,1.68-2.89,4.66-2.19,6.6c1.88,5.18,18.01,3.51,30.45-2.41c16.41-7.8,25.33-22.46,29.06-28.74
	c7.05-11.9,14.95-31.86,9.26-36.9c-1.29-1.14-3.51-1.71-5.48-0.86C163.96,113.77,168.69,129.44,160.39,144.58z"/>
</svg>
